HIERARCHY
ROOT Hips
{
  OFFSET -0.0392711 15.6475 -0.0208516
  CHANNELS 6 Xposition Yposition Zposition Zrotation Xrotation Yrotation
  JOINT LHipJoint
  {
    OFFSET 0 0 0
    CHANNELS 6 Xposition Yposition Zposition Zrotation Xrotation Yrotation
    JOINT LeftUpLeg
    {
      OFFSET 1.36306 -1.79463 0.83929
      CHANNELS 6 Xposition Yposition Zposition Zrotation Xrotation Yrotation
      JOINT LeftLeg
      {
        OFFSET 2.44811 -6.72613 0
        CHANNELS 6 Xposition Yposition Zposition Zrotation Xrotation Yrotation
        JOINT LeftFoot
        {
          OFFSET 2.5622 -7.03959 0
          CHANNELS 6 Xposition Yposition Zposition Zrotation Xrotation Yrotation
          JOINT LeftToeBase
          {
            OFFSET 0.15764 -0.43311 2.32255
            CHANNELS 6 Xposition Yposition Zposition Zrotation Xrotation Yrotation
            End Site
            {
              OFFSET 0 0 0
            }
          }
        }
      }
    }
  }
  JOINT RHipJoint
  {
    OFFSET 0 0 0
    CHANNELS 6 Xposition Yposition Zposition Zrotation Xrotation Yrotation
    JOINT RightUpLeg
    {
      OFFSET -1.30552 -1.79463 0.83929
      CHANNELS 6 Xposition Yposition Zposition Zrotation Xrotation Yrotation
      JOINT RightLeg
      {
        OFFSET -2.54253 -6.98555 0
        CHANNELS 6 Xposition Yposition Zposition Zrotation Xrotation Yrotation
        JOINT RightFoot
        {
          OFFSET -2.56826 -7.05623 0
          CHANNELS 6 Xposition Yposition Zposition Zrotation Xrotation Yrotation
          JOINT RightToeBase
          {
            OFFSET -0.16473 -0.45259 2.36315
            CHANNELS 6 Xposition Yposition Zposition Zrotation Xrotation Yrotation
            End Site
            {
              OFFSET 0 0 0
            }
          }
        }
      }
    }
  }
  JOINT LowerBack
  {
    OFFSET 0 0 0
    CHANNELS 6 Xposition Yposition Zposition Zrotation Xrotation Yrotation
    JOINT Spine
    {
      OFFSET 0.02827 2.03559 -0.19338
      CHANNELS 6 Xposition Yposition Zposition Zrotation Xrotation Yrotation
      JOINT Spine1
      {
        OFFSET 0.05672 2.04885 -0.04275
        CHANNELS 6 Xposition Yposition Zposition Zrotation Xrotation Yrotation
        JOINT Neck
        {
          OFFSET 0 0 0
          CHANNELS 6 Xposition Yposition Zposition Zrotation Xrotation Yrotation
          JOINT Neck1
          {
            OFFSET -0.05417 1.74624 0.17202
            CHANNELS 6 Xposition Yposition Zposition Zrotation Xrotation Yrotation
            JOINT Head
            {
              OFFSET 0.10407 1.76136 -0.12397
              CHANNELS 6 Xposition Yposition Zposition Zrotation Xrotation Yrotation
              End Site
              {
                OFFSET 0 0 0
              }
            }
          }
        }
        JOINT LeftShoulder
        {
          OFFSET 0 0 0
          CHANNELS 6 Xposition Yposition Zposition Zrotation Xrotation Yrotation
          JOINT LeftArm
          {
            OFFSET 3.36241 1.20089 -0.31121
            CHANNELS 6 Xposition Yposition Zposition Zrotation Xrotation Yrotation
            JOINT LeftForeArm
            {
              OFFSET 4.983 0 0
              CHANNELS 6 Xposition Yposition Zposition Zrotation Xrotation Yrotation
              JOINT LeftHand
              {
                OFFSET 3.48356 0 0
                CHANNELS 6 Xposition Yposition Zposition Zrotation Xrotation Yrotation
                JOINT LeftFingerBase
                {
                  OFFSET 0 0 0
                  CHANNELS 6 Xposition Yposition Zposition Zrotation Xrotation Yrotation
                  JOINT LeftHandIndex1
                  {
                    OFFSET 0.71526 0 0
                    CHANNELS 6 Xposition Yposition Zposition Zrotation Xrotation Yrotation
                    End Site
                    {
                      OFFSET 0 0 0
                    }
                  }
                }
                JOINT LThumb
                {
                  OFFSET 0 0 0
                  CHANNELS 6 Xposition Yposition Zposition Zrotation Xrotation Yrotation
                  End Site
                  {
                    OFFSET 0 0 0
                  }
                }
              }
            }
          }
        }
        JOINT RightShoulder
        {
          OFFSET 0 0 0
          CHANNELS 6 Xposition Yposition Zposition Zrotation Xrotation Yrotation
          JOINT RightArm
          {
            OFFSET -3.1366 1.37405 -0.40465
            CHANNELS 6 Xposition Yposition Zposition Zrotation Xrotation Yrotation
            JOINT RightForeArm
            {
              OFFSET -5.2419 0 0
              CHANNELS 6 Xposition Yposition Zposition Zrotation Xrotation Yrotation
              JOINT RightHand
              {
                OFFSET -3.44417 0 0
                CHANNELS 6 Xposition Yposition Zposition Zrotation Xrotation Yrotation
                JOINT RightFingerBase
                {
                  OFFSET 0 0 0
                  CHANNELS 6 Xposition Yposition Zposition Zrotation Xrotation Yrotation
                  JOINT RightHandIndex1
                  {
                    OFFSET -0.62253 0 0
                    CHANNELS 6 Xposition Yposition Zposition Zrotation Xrotation Yrotation
                    End Site
                    {
                      OFFSET 0 0 0
                    }
                  }
                }
                JOINT RThumb
                {
                  OFFSET 0 0 0
                  CHANNELS 6 Xposition Yposition Zposition Zrotation Xrotation Yrotation
                  End Site
                  {
                    OFFSET 0 0 0
                  }
                }
              }
            }
          }
        }
      }
    }
  }
}
MOTION
Frames:	8
Frame Time:	0.00833333
-0.050488 15.5829 129.877 0.844564 8.71693 -5.03591 0 0 0 -0.299681 5.35791 18.0368 1.36306 -1.79463 0.83929 -46.849 -34.7511 -34.523 2.44811 -6.72613 -1.42109e-014 -1.39516 58.6623 48.2978 2.5622 -7.03959 0 -20.0735 1.16635 -4.15033 0.15764 -0.43311 2.32255 -0.000783365 0.578063 0.298221 0 0 0 -8.85582 0.425549 -20.6242 -1.30552 -1.79463 0.83929 34.3249 -35.6492 20.3942 -2.54253 -6.98555 0 2.44274 69.3411 -48.4632 -2.56826 -7.05623 0 17.3978 0.0306104 7.13033 -0.16473 -0.45259 2.36315 0.051676 -0.443508 0.239244 0 0 0 -1.93281 -2.12354 0.12108 0.02827 2.03559 -0.19338 2.83254 43.8593 -12.5981 0.05672 2.04885 -0.04275 -12.1878 -2.54164 -9.32542 0 0 0 -1.0933 -9.76332 -0.0245685 -0.05417 1.74624 0.17202 2.34747 27.0586 -1.26576 0.10407 1.76136 -0.12397 0.0951787 -1.02443 -0.083272 0 0 0 13.448 -5.12309 23.2431 3.36241 1.20089 -0.31121 -65.6479 5.4082 -33.0877 4.983 -7.10543e-015 0 13.3638 29.36 -80.4499 3.48356 0 0 4.73459 -0.42189 1.10997 0 0 0 -0.121029 -1.99587e-006 -1.14815 0.71526 -1.42109e-014 0 3.18055e-015 2.54444e-014 2.38542e-014 0 0 0 -6.36111e-015 -5.56597e-015 -3.18055e-015 0 0 0 -13.8162 -3.47019 -21.3885 -3.1366 1.37405 -0.40465 93.2695 35.4718 -8.85633 -5.2419 3.55271e-015 -7.10543e-015 20.2561 -2.41038 49.9442 -3.44417 3.55271e-015 0 -0.422882 -0.332566 1.30775 0 0 0 0.388203 -7.81847e-008 2.4941 -0.62253 0 0 4.96962e-016 6.36111e-015 3.97569e-016 0 0 0 3.18055e-015 -1.59028e-015 -7.95139e-016 
-0.0392712 15.6475 130.034 0.566178 8.62104 -5.19054 0 0 0 -0.299681 5.35791 18.0368 1.36306 -1.79463 0.83929 -45.5152 -33.7945 -33.3983 2.44811 -6.72613 0 -1.01241 58.1138 47.5062 2.5622 -7.03959 0 -20.1902 1.05651 -4.21267 0.15764 -0.43311 2.32255 -3.18055e-015 -9.54166e-015 -3.18055e-015 0 0 0 -8.85582 0.425549 -20.6242 -1.30552 -1.79463 0.83929 34.9568 -35.6155 20.3178 -2.54253 -6.98555 0 0.819482 67.8072 -46.1853 -2.56826 -7.05623 7.10543e-015 17.6055 0.613182 6.77435 -0.16473 -0.45259 2.36315 -2.36798e-006 7.24696e-007 1.21657e-005 0 0 0 -1.93281 -2.12354 0.12108 0.02827 2.03559 -0.19338 2.92164 43.7148 -12.63 0.05672 2.04885 -0.04275 -12.0183 -2.80464 -9.36045 0 0 0 -1.0072 -9.92032 -0.0272322 -0.05417 1.74624 0.17202 2.43781 26.9009 -1.27785 0.10407 1.76136 -0.12397 3.19997e-006 7.32559e-007 -1.8975e-006 0 0 0 13.4913 -5.40754 23.2949 3.36241 1.20089 -0.31121 -65.4028 6.44701 -31.9576 4.983 0 1.42109e-014 14.382 30.1304 -81.2171 3.48356 -1.42109e-014 0 4.52612 -0.514376 1.47384 0 0 0 -0.121029 -1.99587e-006 -1.14815 0.71526 0 0 6.36111e-015 2.38542e-014 2.54444e-014 0 0 0 3.18055e-015 -7.95139e-015 -7.15625e-015 0 0 0 -13.8327 -3.67342 -21.4536 -3.1366 1.37405 -0.40465 92.0423 35.4326 -7.98858 -5.2419 -3.55271e-015 -1.42109e-014 21.2823 -3.19237 49.0546 -3.44417 -1.77636e-015 -1.42109e-014 -0.935076 -0.19899 1.67363 0 0 0 0.388203 -7.81847e-008 2.4941 -0.62253 3.55271e-015 0 2.98177e-016 6.36111e-015 -0 0 0 0 2.5842e-015 -3.18055e-015 -0 
-0.0221012 15.7451 130.332 0.141354 8.4132 -5.44779 0 0 0 -0.299681 5.35791 18.0368 1.36306 -1.79463 0.83929 -43.6243 -32.4608 -31.8717 2.44811 -6.72613 0 -0.733476 57.5196 46.2731 2.5622 -7.03959 0 -20.1373 1.09493 -4.16336 0.15764 -0.43311 2.32255 -0.0217275 -1.35009 -0.666105 0 0 0 -8.85582 0.425549 -20.6242 -1.30552 -1.79463 0.83929 35.8081 -35.3423 20.0989 -2.54253 -6.98555 0 -1.12429 65.5036 -43.165 -2.56826 -7.05623 0 17.9073 1.9371 5.9912 -0.16473 -0.45259 2.36315 -0.270209 1.02044 -0.635418 0 0 0 -1.93281 -2.12354 0.12108 0.02827 2.03559 -0.19338 3.04062 43.4587 -12.6717 0.05672 2.04885 -0.04275 -11.7604 -3.36372 -9.42489 0 0 0 -0.838622 -10.2543 -0.0447589 -0.05417 1.74624 0.17202 2.62012 26.5652 -1.31392 0.10407 1.76136 -0.12397 -0.296623 1.97306 0.102583 0 0 0 13.6021 -5.89811 23.4716 3.36241 1.20089 -0.31121 -65.1225 7.75367 -30.3357 4.983 0 -1.42109e-014 14.3734 31.2418 -80.563 3.48356 1.42109e-014 0 3.444 -0.628753 1.81375 0 0 0 -0.121029 -1.99587e-006 -1.14815 0.71526 -1.42109e-014 -3.55271e-015 6.36111e-015 1.98785e-014 2.3059e-014 0 0 0 1.54487e-031 -5.56597e-015 1.59028e-015 0 0 0 -13.8759 -4.12686 -21.602 -3.1366 1.37405 -0.40465 90.2504 35.2133 -7.17514 -5.2419 3.55271e-015 0 22.3172 -4.10403 48.8986 -3.44417 0 1.42109e-014 -1.46853 -0.121218 1.85707 0 0 0 0.388203 -7.81847e-008 2.4941 -0.62253 0 0 -1.63997e-015 3.18055e-015 3.97569e-016 0 0 0 -2.08724e-015 1.59028e-015 -0 
-0.00173056 15.8621 130.719 -0.379786 8.11326 -5.78444 0 0 0 -0.299681 5.35791 18.0368 1.36306 -1.79463 0.83929 -41.4349 -30.8547 -30.1305 2.44811 -6.72613 -1.42109e-014 -0.574767 56.9093 44.7713 2.5622 -7.03959 1.42109e-014 -19.9528 1.26404 -4.02103 0.15764 -0.43311 2.32255 -0.10578 -3.25666 -1.60166 0 0 0 -8.85582 0.425549 -20.6242 -1.30552 -1.79463 0.83929 36.6935 -34.773 19.6876 -2.54253 -6.98555 1.42109e-014 -2.83458 62.5827 -40.1124 -2.56826 -7.05623 -1.42109e-014 18.3328 3.80444 4.89991 -0.16473 -0.45259 2.36315 -0.623596 2.50973 -1.56489 0 0 0 -1.93281 -2.12354 0.12108 0.02827 2.03559 -0.19338 3.19886 43.136 -12.7128 0.05672 2.04885 -0.04275 -11.48 -4.12903 -9.5013 0 0 0 -0.623744 -10.7151 -0.0706308 -0.05417 1.74624 0.17202 2.85309 26.1021 -1.36188 0.10407 1.76136 -0.12397 -0.73338 4.65937 0.213556 0 0 0 13.7424 -6.50943 23.7702 3.36241 1.20089 -0.31121 -64.891 9.28647 -28.2086 4.983 0 -1.42109e-014 13.5479 32.4891 -78.7791 3.48356 0 0 1.81201 -0.739025 2.01712 0 0 0 -0.121029 -1.99587e-006 -1.14815 0.71526 1.42109e-014 0 3.18055e-015 2.06736e-014 2.70347e-014 0 0 0 2.20695e-031 3.18055e-015 -3.97569e-015 0 0 0 -13.9762 -4.77652 -21.7689 -3.1366 1.37405 -0.40465 88.2068 34.7147 -6.49919 -5.2419 0 -7.10543e-015 23.2281 -4.82814 49.3161 -3.44417 0 0 -1.88242 -0.0772458 1.95454 0 0 0 0.388203 -7.81847e-008 2.4941 -0.62253 -3.55271e-015 0 -7.54139e-015 0 2.98177e-016 0 0 0 2.98177e-016 1.59028e-015 -0 
0.0189024 15.9874 131.148 -0.927752 7.73077 -6.14542 0 0 0 -0.299681 5.35791 18.0368 1.36306 -1.79463 0.83929 -39.2108 -29.1196 -28.3478 2.44811 -6.72613 -1.42109e-014 -0.533352 56.3507 43.1987 2.5622 -7.03959 0 -19.5488 1.82093 -3.67236 0.15764 -0.43311 2.32255 -0.297374 -5.58538 -2.80629 0 0 0 -8.85582 0.425549 -20.6242 -1.30552 -1.79463 0.83929 37.4517 -33.9847 19.1349 -2.54253 -6.98555 0 -4.04637 59.3951 -37.4831 -2.56826 -7.05623 -1.42109e-014 18.9312 5.82792 3.70724 -0.16473 -0.45259 2.36315 -0.941234 4.05373 -2.53177 0 0 0 -1.93281 -2.12354 0.12108 0.02827 2.03559 -0.19338 3.37126 42.781 -12.7481 0.05672 2.04885 -0.04275 -11.1779 -4.97762 -9.5766 0 0 0 -0.389176 -11.1848 -0.100196 -0.05417 1.74624 0.17202 3.10827 25.6298 -1.41696 0.10407 1.76136 -0.12397 -1.32852 7.66797 0.358693 0 0 0 13.8941 -7.14567 24.1398 3.36241 1.20089 -0.31121 -64.7022 10.8576 -25.7715 4.983 0 -1.42109e-014 12.42 33.783 -76.4596 3.48356 1.42109e-014 0 0.00741737 -0.826013 2.09155 0 0 0 -0.121029 -1.99587e-006 -1.14815 0.71526 0 0 -3.18055e-015 2.22639e-014 3.33958e-014 0 0 0 -9.54166e-015 0 -3.18055e-015 0 0 0 -14.1449 -5.51411 -21.9125 -3.1366 1.37405 -0.40465 86.1152 34.1291 -5.96099 -5.2419 0 0 24.0894 -5.38869 50.0029 -3.44417 0 0 -2.33573 -0.0495758 1.99081 0 0 0 0.388203 -7.81847e-008 2.4941 -0.62253 0 -1.42109e-014 -8.94531e-016 3.18055e-015 7.95139e-016 0 0 0 1.76421e-015 1.59028e-015 6.95746e-016 
0.0368594 16.1096 131.569 -1.43174 7.27539 -6.47588 0 0 0 -0.299681 5.35791 18.0368 1.36306 -1.79463 0.83929 -37.1726 -27.4213 -26.6641 2.44811 -6.72613 1.42109e-014 -0.577483 55.9239 41.7265 2.5622 -7.03959 -1.42109e-014 -18.8541 3.02352 -3.00435 0.15764 -0.43311 2.32255 -0.643797 -8.19863 -4.28496 0 0 0 -8.85582 0.425549 -20.6242 -1.30552 -1.79463 0.83929 37.9197 -33.0555 18.4899 -2.54253 -6.98555 1.42109e-014 -4.79569 56.3209 -35.4057 -2.56826 -7.05623 1.42109e-014 19.6975 7.61566 2.61788 -0.16473 -0.45259 2.36315 -1.15501 5.24015 -3.27637 0 0 0 -1.93281 -2.12354 0.12108 0.02827 2.03559 -0.19338 3.53301 42.4284 -12.7729 0.05672 2.04885 -0.04275 -10.8534 -5.78679 -9.63655 0 0 0 -0.161161 -11.5452 -0.12873 -0.05417 1.74624 0.17202 3.35781 25.2665 -1.47454 0.10407 1.76136 -0.12397 -2.10275 10.6078 0.564579 0 0 0 14.0348 -7.71274 24.5274 3.36241 1.20089 -0.31121 -64.5018 12.2549 -23.2155 4.983 0 0 11.5656 35.1618 -74.3433 3.48356 1.42109e-014 3.55271e-015 -1.59231 -0.870528 2.04458 0 0 0 -0.121029 -1.99587e-006 -1.14815 0.71526 -2.84217e-014 0 6.36111e-015 2.22639e-014 2.54444e-014 0 0 0 -3.18055e-015 0 4.77083e-015 0 0 0 -14.3899 -6.23266 -21.9891 -3.1366 1.37405 -0.40465 84.1683 33.649 -5.55362 -5.2419 0 0 24.9583 -5.83032 50.6567 -3.44417 0 1.42109e-014 -2.98772 -0.0207172 1.99066 0 0 0 0.388203 -7.81847e-008 2.4941 -0.62253 3.55271e-015 0 -4.77083e-015 1.59028e-015 -7.95139e-016 0 0 0 -1.09332e-015 0 -3.97569e-016 
0.0521207 16.2291 131.976 -1.88638 6.73916 -6.77233 0 0 0 -0.299681 5.35791 18.0368 1.36306 -1.79463 0.83929 -35.2985 -25.7918 -25.056 2.44811 -6.72613 1.42109e-014 -0.717309 55.7071 40.2454 2.5622 -7.03959 1.42109e-014 -17.8213 4.98542 -1.92763 0.15764 -0.43311 2.32255 -1.28793 -11.2464 -6.20733 0 0 0 -8.85582 0.425549 -20.6242 -1.30552 -1.79463 0.83929 38.0969 -31.9716 17.7729 -2.54253 -6.98555 1.42109e-014 -5.2647 53.3406 -33.6676 -2.56826 -7.05623 1.42109e-014 20.6441 9.12346 1.64488 -0.16473 -0.45259 2.36315 -1.26623 5.9669 -3.72101 0 0 0 -1.93281 -2.12354 0.12108 0.02827 2.03559 -0.19338 3.6755 42.0805 -12.7885 0.05672 2.04885 -0.04275 -10.484 -6.5437 -9.67923 0 0 0 0.0678355 -11.7685 -0.157384 -0.05417 1.74624 0.17202 3.61103 25.0398 -1.53875 0.10407 1.76136 -0.12397 -3.12361 13.485 0.843467 0 0 0 14.1451 -8.19904 24.9318 3.36241 1.20089 -0.31121 -64.1281 13.532 -20.3949 4.983 0 0 11.1498 36.622 -72.7677 3.48356 0 0 -2.94419 -0.879003 1.8914 0 0 0 -0.121029 -1.99587e-006 -1.14815 0.71526 1.42109e-014 0 3.18055e-015 2.38542e-014 1.59028e-014 0 0 0 -3.18055e-015 -4.77083e-015 -9.54166e-015 0 0 0 -14.7473 -6.90994 -22.0232 -3.1366 1.37405 -0.40465 82.4267 33.3179 -5.32085 -5.2419 0 0 25.8612 -6.20439 51.2301 -3.44417 0 -2.84217e-014 -3.92556 0.0071475 1.92479 0 0 0 0.388203 -7.81847e-008 2.4941 -0.62253 0 0 -1.59028e-015 1.59028e-015 2.38542e-015 0 0 0 -4.96962e-016 0 1.98785e-015 
0.0659988 16.3506 132.393 -2.32686 6.12078 -7.0606 0 0 0 -0.299681 5.35791 18.0368 1.36306 -1.79463 0.83929 -33.4946 -24.1494 -23.4592 2.44811 -6.72613 2.84217e-014 -0.931756 55.6359 38.6816 2.5622 -7.03959 0 -16.5916 7.55432 -0.515633 0.15764 -0.43311 2.32255 -2.32755 -14.7057 -8.5703 0 0 0 -8.85582 0.425549 -20.6242 -1.30552 -1.79463 0.83929 38.0798 -30.696 16.9725 -2.54253 -6.98555 0 -5.51666 50.3024 -32.1386 -2.56826 -7.05623 -1.42109e-014 21.7573 10.5371 0.689233 -0.16473 -0.45259 2.36315 -1.32988 6.45246 -4.00508 0 0 0 -1.93281 -2.12354 0.12108 0.02827 2.03559 -0.19338 3.81294 41.7212 -12.797 0.05672 2.04885 -0.04275 -10.0768 -7.3073 -9.71164 0 0 0 0.307122 -11.9165 -0.187841 -0.05417 1.74624 0.17202 3.87748 24.888 -1.61035 0.10407 1.76136 -0.12397 -4.3772 16.4706 1.18611 0 0 0 14.2421 -8.64955 25.3766 3.36241 1.20089 -0.31121 -63.6713 14.7374 -17.2571 4.983 0 -1.42109e-014 10.8644 38.1802 -71.3246 3.48356 0 0 -4.23047 -0.857815 1.62359 0 0 0 -0.121029 -1.99587e-006 -1.14815 0.71526 0 -3.55271e-015 6.36111e-015 2.54444e-014 2.22639e-014 0 0 0 -3.18055e-015 -1.59028e-015 -7.95139e-015 0 0 0 -15.1992 -7.60187 -22.0262 -3.1366 1.37405 -0.40465 80.776 33.0385 -5.24623 -5.2419 -7.10543e-015 -1.42109e-014 26.7615 -6.47498 51.8676 -3.44417 -7.10543e-015 0 -5.04926 0.0269771 1.79197 0 0 0 0.388203 -7.81847e-008 2.4941 -0.62253 -7.10543e-015 0 -7.95139e-015 0 1.59028e-015 0 0 0 5.36719e-015 -3.18055e-015 -7.95139e-016 
